<svg width="200" height="49" viewBox="0 0 200 49" fill="none" xmlns="http://www.w3.org/2000/svg">
<path d="M130.868 26.4291H155.846V28.0278H130.868V26.4291ZM135.112 19.1896H151.06V21.0121H135.112V19.1896ZM142.81 23.6886L145.364 22.6253V30.6039C145.364 31.8509 145.256 32.5076 144.117 32.8273C142.81 32.8273 141.369 32.8273 138.608 32.8273V31.0835C138.608 31.0835 141.567 31.1155 142.12 31.0835C142.672 31.0516 142.81 30.9556 142.81 30.54V23.6886ZM150.473 19.1896H151.094H151.768V21.0121C149.474 22.3183 147.435 23.41 144.708 24.6889C144.398 24.3053 143.776 23.6978 143.431 23.41C145.951 22.5148 148.954 20.8842 150.473 19.6052V19.1896ZM129.417 15.161H158.896V21.0121H156.341V17.0154H131.902V21.0121H129.417V15.161ZM132.04 4.51401L133.927 4.52406C133.858 4.68393 133.927 6.04274 133.927 6.56028V15.9237H132.04V4.51401ZM154.317 4.96156H155.846H156.865C156.865 8.61562 156.768 13.1832 156.865 16.1841H154.317C154.317 13.1832 154.144 8.54253 154.317 4.96156ZM148.851 4.96156H155.478V6.56028H148.851V4.96156ZM138.769 4.51401V6.1766C136.73 6.1766 134.664 6.1766 133.024 6.1766V4.51401C135.112 4.51401 137.24 4.52406 138.769 4.51401ZM133.007 8.31879H139.289V9.94941H133.007V8.31879ZM133.179 11.7079H139.462V13.3705H133.179V11.7079ZM148.989 8.31879H155.202V9.94941H148.989V8.31879ZM148.851 11.7079H154.961V13.3705H148.851V11.7079ZM145.71 4.00244L147.18 4.89768C145.037 6.48713 143.081 7.53767 141.063 9.07237C140.566 8.84399 140.299 8.61562 139.6 8.25485C141.573 7.01697 144.122 5.18994 145.71 4.00244ZM140.044 4.96156L141.573 4.00244C143.102 4.89768 146.277 7.36867 147.69 8.25485L146.161 9.07237C145.075 8.30502 141.828 6.1766 140.044 4.96156ZM145.71 9.78955L147.18 10.4426C144.632 12.2697 143.102 13.4116 141.063 14.7818C140.753 14.4941 140.048 14.0399 139.6 13.7522C141.573 12.498 143.867 11.1278 145.71 9.78955ZM140.044 10.8994L141.573 9.78955C143.357 10.8994 145.906 12.2697 147.69 13.3705L146.161 14.5534C144.632 13.6399 142.083 12.0413 140.044 10.8994Z" fill="#02DEC5"/>
<path d="M107.87 4.94653H111.35L99.4611 33.2768C98.3012 33.2768 95.6914 33.2768 95.6914 33.2768L107.87 4.94653ZM109.61 16.6384L125.269 33.2768H121.789L108.45 19.3365L109.61 16.6384Z" fill="#02DEC5"/>
<path d="M91.0518 19.3455V21.3601H86.4123H83.8025V19.3455H91.0518ZM71.6236 21.3601V19.3455H79.2413H77.713L77.133 21.3601H71.6236ZM75.3509 5.84589H86.4119V8.0718H75.3509V5.84589ZM74.2066 10.3428H84.6725L83.6623 12.6002H74.2066V10.3428ZM71.6236 14.7949H82.6426H85.8324H91.0518V17.106H71.6236V14.7949ZM79.4528 15.7524H82.0627V30.2323C82.0627 31.397 82.1844 32.2875 81.1928 32.6022C80.2392 32.98 77.9336 32.8271 75.6833 32.8271V30.5786C77.2852 30.6416 78.1253 30.6101 78.583 30.5786C79.0407 30.5786 79.2413 30.6101 79.2413 30.2323V19.3455L79.4528 15.7524ZM71.6236 30.138L75.1033 21.3601H77.133L74.2333 30.138H71.6236ZM86.7023 21.3601V32.3864H83.8025V21.3601H86.7023ZM74.5234 4.50583L77.4231 4.49683C76.2632 7.64463 75.3933 10.1269 74.5234 12.6002H71.6236L74.5234 4.50583ZM85.344 6.26029L85.8324 5.84589H88.4421L85.8324 14.7949H82.6426L85.344 6.9701V6.26029ZM64.9542 4.49683H67.854L64.9542 12.7981H61.7644L64.9542 4.49683ZM61.7644 12.7981H64.9542L69.3037 12.816L66.694 23.3658L62.6343 32.8092L61.2516 19.0937V13.9402L61.7644 12.7981ZM69.3037 12.816L66.8391 14.1472H66.1141L66.114 13.9402L61.7644 12.7981H64.9542L69.3037 12.816ZM61.2516 19.0937L62.6343 32.8092H65.5341L69.5937 23.3658H66.694L64.9541 22.934H62.0544L61.5374 20.4607L61.2516 19.0937ZM61.2516 19.0937L62.0544 22.934L66.114 13.9402H61.2516V19.0937ZM62.6343 32.8092H65.5341L69.5937 23.3658H66.694L69.3037 12.816L64.9541 22.934L66.694 23.3658L62.6343 32.8092Z" fill="#02DEC5"/>
<path fill-rule="evenodd" clip-rule="evenodd" d="M14.0926 11.667C21.2927 5.92509 31.8565 2.52589 42.8834 0.988674L15.368 30.4774L15.0803 30.4842C15.0836 30.5788 15.09 30.6725 15.0993 30.7654L0.278126 46.6496L0 46.6496C0.00622401 33.602 3.4767 20.1329 14.0926 11.667ZM17.6986 34.3335C17.4224 34.574 17.131 34.8026 16.8255 35.0184L0.356562 46.6497C2.02421 46.6511 3.74759 46.6656 5.50835 46.6804C20.2906 46.8046 37.7072 46.951 46.8921 39.5664C48.8475 37.9942 50.437 36.0875 51.729 33.9417L19.5532 34.7003C18.8951 34.7158 18.2662 34.5834 17.6986 34.3335ZM53.8554 29.57C57.3362 20.6428 57.3411 9.27199 57.345 0.28915L57.3452 0C55.1652 0.000689079 52.953 0.0677237 50.7319 0.204973L21.621 30.33L53.8554 29.57Z" fill="#02DEC5"/>
<path fill-rule="evenodd" clip-rule="evenodd" d="M187.514 4.7218H185.084V7.33894H177.094V13.0994H179.324V9.41649H193.839V13.0679H196.169V7.33894H187.514V4.7218ZM193.473 12.9106H179.724V14.9881H193.473V12.9106ZM196.269 18.5766H177.46V20.7171H181.84L181.234 29.6794C180.59 30.5778 177.464 30.3539 177.464 30.3539C177.464 30.4453 177.464 30.5477 177.463 30.6577L177.463 30.6585C177.463 30.9059 177.462 31.1917 177.464 31.4781C177.467 31.7835 177.466 31.7868 177.466 31.7933C177.465 31.7979 177.464 31.8042 177.464 31.9278C177.464 31.9278 182.501 32.3775 183.844 30.8036C184.022 30.5307 184.082 28.0783 184.151 25.2751V25.275L184.151 25.2748C184.189 23.7619 184.228 22.1469 184.291 20.7171H188.08V29.2162C188.08 31.5456 188.646 32.2381 190.909 32.2381H193.806C195.77 32.2381 196.079 31.0734 196.312 26.9813H194.5C194.439 30.1294 194.298 30.124 193.709 30.1017H193.709H193.709C193.656 30.0997 193.6 30.0976 193.539 30.0976H191.276C190.577 30.0976 190.443 29.9717 190.443 29.1847V20.7171H196.269V18.5766ZM169.635 5.39633H167.373V32.6788H169.637V24.2831H169.635V22.0346H169.637V16.1887H169.635V12.8161H169.637V7.64467H169.635V5.39633ZM174.274 18.8869C173.476 17.8031 172.188 16.4348 171.085 15.2887V15.0645V14.2946C172.009 12.0806 173.167 9.2827 173.934 7.21302H171.085V6.52045V5.39633H174.464H175.144H176.884C176.558 6.26934 176.183 7.34399 175.787 8.48145C175.012 10.7071 174.154 13.1732 173.404 14.8397C175.868 17.4524 176.561 19.0488 176.561 21.0004C176.561 22.7002 176.366 23.4288 175.434 24.0583C175.042 24.2968 174.784 24.2931 174.29 24.286C174.197 24.2846 174.096 24.2832 173.984 24.2832C173.772 24.2832 173.495 24.286 173.191 24.2891L173.19 24.2891C172.48 24.2964 171.62 24.3052 171.085 24.2832V22.4844H173.532C174.854 22.4844 174.854 21.0004 174.854 21.0004C174.854 20.0111 174.444 19.1173 174.274 18.8869Z" fill="#02DEC5"/>
<path d="M130.868 26.4291H155.846V28.0278H130.868V26.4291ZM135.112 19.1896H151.06V21.0121H135.112V19.1896ZM142.81 23.6886L145.364 22.6253V30.6039C145.364 31.8509 145.256 32.5076 144.117 32.8273C142.81 32.8273 141.369 32.8273 138.608 32.8273V31.0835C138.608 31.0835 141.567 31.1155 142.12 31.0835C142.672 31.0516 142.81 30.9556 142.81 30.54V23.6886ZM150.473 19.1896H151.094H151.768V21.0121C149.474 22.3183 147.435 23.41 144.708 24.6889C144.398 24.3053 143.776 23.6978 143.431 23.41C145.951 22.5148 148.954 20.8842 150.473 19.6052V19.1896ZM129.417 15.161H158.896V21.0121H156.341V17.0154H131.902V21.0121H129.417V15.161ZM132.04 4.51401L133.927 4.52406C133.858 4.68393 133.927 6.04274 133.927 6.56028V15.9237H132.04V4.51401ZM154.317 4.96156H155.846H156.865C156.865 8.61562 156.768 13.1832 156.865 16.1841H154.317C154.317 13.1832 154.144 8.54253 154.317 4.96156ZM148.851 4.96156H155.478V6.56028H148.851V4.96156ZM138.769 4.51401V6.1766C136.73 6.1766 134.664 6.1766 133.024 6.1766V4.51401C135.112 4.51401 137.24 4.52406 138.769 4.51401ZM133.007 8.31879H139.289V9.94941H133.007V8.31879ZM133.179 11.7079H139.462V13.3705H133.179V11.7079ZM148.989 8.31879H155.202V9.94941H148.989V8.31879ZM148.851 11.7079H154.961V13.3705H148.851V11.7079ZM145.71 4.00244L147.18 4.89768C145.037 6.48713 143.081 7.53767 141.063 9.07237C140.566 8.84399 140.299 8.61562 139.6 8.25485C141.573 7.01697 144.122 5.18994 145.71 4.00244ZM140.044 4.96156L141.573 4.00244C143.102 4.89768 146.277 7.36867 147.69 8.25485L146.161 9.07237C145.075 8.30502 141.828 6.1766 140.044 4.96156ZM145.71 9.78955L147.18 10.4426C144.632 12.2697 143.102 13.4116 141.063 14.7818C140.753 14.4941 140.048 14.0399 139.6 13.7522C141.573 12.498 143.867 11.1278 145.71 9.78955ZM140.044 10.8994L141.573 9.78955C143.357 10.8994 145.906 12.2697 147.69 13.3705L146.161 14.5534C144.632 13.6399 142.083 12.0413 140.044 10.8994Z" fill="#02DEC5"/>
<path d="M107.87 4.94653H111.35L99.4611 33.2768C98.3012 33.2768 95.6914 33.2768 95.6914 33.2768L107.87 4.94653ZM109.61 16.6384L125.269 33.2768H121.789L108.45 19.3365L109.61 16.6384Z" fill="#02DEC5"/>
<path d="M91.0518 19.3455V21.3601H86.4123H83.8025V19.3455H91.0518ZM71.6236 21.3601V19.3455H79.2413H77.713L77.133 21.3601H71.6236ZM75.3509 5.84589H86.4119V8.0718H75.3509V5.84589ZM74.2066 10.3428H84.6725L83.6623 12.6002H74.2066V10.3428ZM71.6236 14.7949H82.6426H85.8324H91.0518V17.106H71.6236V14.7949ZM79.4528 15.7524H82.0627V30.2323C82.0627 31.397 82.1844 32.2875 81.1928 32.6022C80.2392 32.98 77.9336 32.8271 75.6833 32.8271V30.5786C77.2852 30.6416 78.1253 30.6101 78.583 30.5786C79.0407 30.5786 79.2413 30.6101 79.2413 30.2323V19.3455L79.4528 15.7524ZM71.6236 30.138L75.1033 21.3601H77.133L74.2333 30.138H71.6236ZM86.7023 21.3601V32.3864H83.8025V21.3601H86.7023ZM74.5234 4.50583L77.4231 4.49683C76.2632 7.64463 75.3933 10.1269 74.5234 12.6002H71.6236L74.5234 4.50583ZM85.344 6.26029L85.8324 5.84589H88.4421L85.8324 14.7949H82.6426L85.344 6.9701V6.26029ZM64.9542 4.49683H67.854L64.9542 12.7981H61.7644L64.9542 4.49683ZM61.7644 12.7981H64.9542L69.3037 12.816L66.694 23.3658L62.6343 32.8092L61.2516 19.0937V13.9402L61.7644 12.7981ZM69.3037 12.816L66.8391 14.1472H66.1141L66.114 13.9402L61.7644 12.7981H64.9542L69.3037 12.816ZM61.2516 19.0937L62.6343 32.8092H65.5341L69.5937 23.3658H66.694L64.9541 22.934H62.0544L61.5374 20.4607L61.2516 19.0937ZM61.2516 19.0937L62.0544 22.934L66.114 13.9402H61.2516V19.0937ZM62.6343 32.8092H65.5341L69.5937 23.3658H66.694L69.3037 12.816L64.9541 22.934L66.694 23.3658L62.6343 32.8092Z" fill="#02DEC5"/>
<path d="M197.895 36.5985H200L196.635 43.5072V48.25H194.761V44.3609L197.895 36.5985ZM193.67 36.5985L195.375 41.1358L194.545 43.2068L191.565 36.5985H193.67Z" fill="#02DEC5"/>
<path d="M180 36.5985H181.874L184.916 43.7917V46.7165H184.425L181.874 40.2346V48.25H180V36.5985ZM188.589 36.5985H190.463V48.25H188.589V40.2346L186.053 46.7165H185.546V43.8234L188.589 36.5985Z" fill="#02DEC5"/>
<path d="M170.406 36.5985H172.281V48.25H170.406V36.5985ZM177.013 43.0013H172.911V41.7049H177.013V43.0013ZM172.911 46.8113H177.489V48.25H172.911V46.8113ZM177.489 36.5985V38.0372H172.911V36.5985H177.489Z" fill="#02DEC5"/>
<path d="M159.162 36.5985H161.006V48.25H159.162V36.5985ZM162.573 36.5985C163.525 36.5985 164.36 36.7566 165.077 37.0728C165.805 37.3784 166.404 37.7895 166.875 38.3059C167.356 38.8224 167.715 39.4126 167.95 40.0766C168.186 40.73 168.304 41.4045 168.304 42.1001C168.304 43.0592 168.201 43.8813 167.997 44.5664C167.802 45.2409 167.551 45.8101 167.244 46.2738C166.936 46.727 166.588 47.0853 166.199 47.3488C165.82 47.6123 165.451 47.8126 165.093 47.9496C164.734 48.0761 164.406 48.1604 164.109 48.2025C163.812 48.2341 163.592 48.25 163.449 48.25H161.635V46.8587H162.834C164.084 46.8587 164.985 46.4477 165.538 45.6256C166.091 44.8035 166.368 43.6126 166.368 42.0527C166.368 41.5679 166.312 41.0883 166.199 40.6141C166.086 40.1398 165.866 39.7129 165.538 39.3335C165.221 38.9436 164.785 38.6326 164.232 38.4008C163.679 38.1584 162.962 38.0372 162.081 38.0372H161.635V36.5985H162.573Z" fill="#02DEC5"/>
<path d="M156.725 48.2499H154.82L151.885 39.5232L148.92 48.2499H146.999L150.963 36.6143H152.792L156.725 48.2499ZM152.899 44.5505L153.345 45.8311H150.41L150.84 44.5505H152.899Z" fill="#02DEC5"/>
<path d="M144.685 38.8434C144.45 38.5694 144.199 38.3638 143.933 38.2268C143.666 38.0898 143.379 38.0108 143.072 37.9897V36.4246C144.219 36.4773 145.182 36.8936 145.961 37.6735L144.685 38.8434ZM143.072 46.7638C143.379 46.7322 143.666 46.6479 143.933 46.5109C144.209 46.3739 144.46 46.1736 144.685 45.9101L145.961 47.0642C145.571 47.4542 145.136 47.7546 144.655 47.9653C144.173 48.1761 143.646 48.2973 143.072 48.329V46.7638ZM138.094 42.3689C138.094 41.4308 138.201 40.6035 138.417 39.8868C138.642 39.1701 138.949 38.5641 139.338 38.0687C139.728 37.5734 140.184 37.1887 140.706 36.9146C141.239 36.6406 141.817 36.4773 142.442 36.4246V38.0055C142.104 38.0582 141.787 38.1794 141.49 38.3691C141.192 38.5483 140.931 38.8118 140.706 39.1596C140.481 39.5074 140.301 39.95 140.168 40.4875C140.045 41.0145 139.979 41.6416 139.968 42.3689C139.979 43.1066 140.045 43.739 140.168 44.266C140.301 44.7929 140.481 45.2356 140.706 45.5939C140.931 45.9523 141.192 46.2263 141.49 46.416C141.797 46.6057 142.114 46.7217 142.442 46.7638V48.3131C141.817 48.271 141.239 48.1129 140.706 47.8389C140.184 47.5648 139.728 47.1801 139.338 46.6848C138.949 46.1894 138.642 45.5834 138.417 44.8667C138.201 44.1395 138.094 43.3069 138.094 42.3689Z" fill="#02DEC5"/>
<path d="M137.068 48.2499H135.163L132.228 39.5232L129.263 48.2499H127.342L131.306 36.6143H133.134L137.068 48.2499ZM133.242 44.5505L133.688 45.8311H130.753L131.183 44.5505H133.242Z" fill="#02DEC5"/>
<path d="M110.973 42.3689C110.973 41.4308 111.081 40.6035 111.296 39.8868C111.521 39.1596 111.828 38.5483 112.218 38.0529C112.617 37.547 113.083 37.1623 113.616 36.8988C114.159 36.6248 114.748 36.4667 115.383 36.4246V38.0055C115.035 38.0476 114.707 38.1583 114.4 38.3375C114.092 38.5167 113.826 38.7801 113.601 39.1279C113.375 39.4758 113.196 39.9184 113.063 40.4559C112.93 40.9934 112.858 41.6311 112.848 42.3689C112.858 43.1172 112.93 43.7601 113.063 44.2976C113.196 44.8246 113.375 45.2672 113.601 45.6256C113.836 45.9839 114.108 46.2579 114.415 46.4477C114.722 46.6268 115.045 46.7322 115.383 46.7638V48.329C114.758 48.2868 114.174 48.134 113.631 47.8705C113.088 47.5965 112.617 47.2118 112.218 46.7164C111.828 46.2105 111.521 45.5939 111.296 44.8667C111.081 44.1395 110.973 43.3069 110.973 42.3689ZM115.997 36.4246C116.622 36.4562 117.201 36.609 117.734 36.883C118.277 37.1571 118.743 37.547 119.132 38.0529C119.531 38.5483 119.844 39.1596 120.069 39.8868C120.295 40.6035 120.407 41.4308 120.407 42.3689C120.407 43.3069 120.295 44.1395 120.069 44.8667C119.844 45.5939 119.531 46.2105 119.132 46.7164C118.743 47.2118 118.282 47.5965 117.749 47.8705C117.216 48.134 116.633 48.2868 115.997 48.329V46.7638C116.346 46.7217 116.674 46.611 116.981 46.4318C117.288 46.2421 117.554 45.9734 117.78 45.6256C118.005 45.2672 118.184 44.8246 118.318 44.2976C118.451 43.7601 118.522 43.1172 118.533 42.3689C118.522 41.6205 118.451 40.9829 118.318 40.4559C118.184 39.9184 118 39.4758 117.764 39.1279C117.539 38.7696 117.273 38.5008 116.965 38.3217C116.658 38.132 116.336 38.0213 115.997 37.9897V36.4246Z" fill="#02DEC5"/>
<path d="M101.025 36.5985H102.869V48.25H101.025V36.5985ZM108.708 48.25H106.756L104.621 44.0289C104.59 44.0289 104.554 44.0341 104.513 44.0447C104.482 44.0447 104.431 44.0447 104.359 44.0447C104.288 44.0447 104.18 44.0447 104.037 44.0447C103.904 44.0447 103.724 44.0447 103.499 44.0447V42.6535H104.544C104.769 42.6535 104.994 42.6166 105.22 42.5428C105.445 42.4585 105.65 42.3267 105.834 42.1476C106.019 41.9684 106.167 41.7207 106.28 41.4045C106.393 41.0778 106.449 40.6773 106.449 40.203C106.449 40.0133 106.423 39.7973 106.372 39.5548C106.321 39.3019 106.213 39.0648 106.049 38.8434C105.896 38.6116 105.676 38.4218 105.389 38.2743C105.102 38.1162 104.723 38.0372 104.252 38.0372H103.499V36.5985H104.283C104.764 36.5985 105.24 36.6776 105.711 36.8357C106.183 36.9937 106.603 37.2309 106.971 37.5471C107.35 37.8633 107.653 38.2479 107.878 38.7011C108.113 39.1438 108.231 39.6444 108.231 40.203C108.231 41.0462 108.042 41.7629 107.663 42.3531C107.284 42.9433 106.772 43.3807 106.126 43.6653L108.708 48.25Z" fill="#02DEC5"/>
<path d="M98.195 36.5985V48.25H96.3513V43.0013H92.0798V41.7049H96.3513V36.5985H98.195ZM89.5753 36.5985H91.4498V48.25H89.5753V36.5985Z" fill="#02DEC5"/>
<path d="M87.3468 36.5985V37.8949H83.9665V48.25H82.1073V37.8949H78.7271V36.5985H87.3468Z" fill="#02DEC5"/>
<path d="M74.6838 36.5985H76.5583V48.25H74.6838L70.8733 41.3571V37.721L74.6838 44.6296V36.5985ZM68.3688 48.25V36.5985H70.2433V48.25H68.3688Z" fill="#02DEC5"/>
<path d="M66.561 48.2499H64.6557L61.721 39.5232L58.7556 48.2499H56.835L60.7991 36.6143H62.6275L66.561 48.2499ZM62.7351 44.5505L63.1807 45.8311H60.246L60.6762 44.5505H62.7351Z" fill="#02DEC5"/>
</svg>
